<svg width="776" height="109" viewBox="0 0 776 109" fill="none" xmlns="http://www.w3.org/2000/svg">
<path d="M30.3958 34L30.3478 16.192L21.7078 30.688H17.4838L8.84381 16.576V34H0.107813V0.399998H7.93181L19.7398 19.792L31.2598 0.399998H39.0838L39.1798 34H30.3958ZM60.6786 16.048C64.1026 16.08 66.6786 16.848 68.4066 18.352C70.1346 19.856 70.9986 22 70.9986 24.784C70.9986 27.696 69.9906 29.968 67.9746 31.6C65.9906 33.232 63.1746 34.032 59.5266 34H45.7986V7.984H54.8706V16.048H60.6786ZM73.2066 7.984H82.2786V34H73.2066V7.984ZM58.6146 27.76C60.9186 27.76 62.0706 26.72 62.0706 24.64C62.0706 23.616 61.7826 22.864 61.2066 22.384C60.6306 21.904 59.7666 21.648 58.6146 21.616H54.8706V27.712L58.6146 27.76ZM115.48 34.432C112.6 34.432 110.024 33.856 107.752 32.704C105.48 31.552 103.704 29.952 102.424 27.904C101.176 25.856 100.552 23.536 100.552 20.944C100.552 18.352 101.176 16.048 102.424 14.032C103.704 11.984 105.48 10.4 107.752 9.28C110.024 8.128 112.6 7.552 115.48 7.552C118.424 7.552 120.968 8.192 123.112 9.472C125.256 10.72 126.776 12.464 127.672 14.704L120.616 18.304C119.432 15.968 117.704 14.8 115.432 14.8C113.8 14.8 112.44 15.344 111.352 16.432C110.296 17.52 109.768 19.024 109.768 20.944C109.768 22.896 110.296 24.432 111.352 25.552C112.44 26.64 113.8 27.184 115.432 27.184C117.704 27.184 119.432 26.016 120.616 23.68L127.672 27.28C126.776 29.52 125.256 31.28 123.112 32.56C120.968 33.808 118.424 34.432 115.48 34.432ZM144.021 34.432C141.237 34.432 138.725 33.856 136.485 32.704C134.245 31.552 132.485 29.952 131.205 27.904C129.957 25.856 129.333 23.536 129.333 20.944C129.333 18.384 129.957 16.08 131.205 14.032C132.485 11.984 134.229 10.4 136.437 9.28C138.677 8.128 141.205 7.552 144.021 7.552C146.837 7.552 149.365 8.128 151.605 9.28C153.845 10.4 155.589 11.984 156.837 14.032C158.085 16.048 158.709 18.352 158.709 20.944C158.709 23.536 158.085 25.856 156.837 27.904C155.589 29.952 153.845 31.552 151.605 32.704C149.365 33.856 146.837 34.432 144.021 34.432ZM144.021 27.184C145.621 27.184 146.933 26.64 147.957 25.552C148.981 24.432 149.493 22.896 149.493 20.944C149.493 19.024 148.981 17.52 147.957 16.432C146.933 15.344 145.621 14.8 144.021 14.8C142.421 14.8 141.109 15.344 140.085 16.432C139.061 17.52 138.549 19.024 138.549 20.944C138.549 22.896 139.061 24.432 140.085 25.552C141.109 26.64 142.421 27.184 144.021 27.184ZM180.713 20.512C182.217 20.992 183.369 21.728 184.169 22.72C185.001 23.68 185.417 24.832 185.417 26.176C185.417 27.904 184.809 29.408 183.593 30.688C182.409 31.936 180.777 32.896 178.697 33.568C176.649 34.208 174.345 34.528 171.785 34.528C167.369 34.528 163.433 33.776 159.977 32.272L162.329 26.128C165.081 27.28 168.137 27.856 171.497 27.856C172.937 27.856 174.073 27.648 174.905 27.232C175.769 26.816 176.201 26.224 176.201 25.456C176.201 24.752 175.945 24.24 175.433 23.92C174.921 23.6 174.137 23.44 173.081 23.44H167.465V18.112H172.265C174.409 18.112 175.481 17.456 175.481 16.144C175.481 14.768 174.057 14.08 171.209 14.08C168.745 14.08 165.993 14.656 162.953 15.808L160.793 9.808C164.569 8.24 168.297 7.456 171.977 7.456C175.657 7.456 178.697 8.112 181.097 9.424C183.497 10.704 184.697 12.512 184.697 14.848C184.697 16.032 184.345 17.12 183.641 18.112C182.937 19.104 181.961 19.904 180.713 20.512ZM220.66 26.704V39.376H212.212V34H195.844V39.376H187.348V26.704H188.308C189.876 26.672 190.964 25.824 191.572 24.16C192.18 22.464 192.548 20.096 192.676 17.056L193.012 7.984H217.06V26.704H220.66ZM200.884 17.728C200.788 20.064 200.612 21.936 200.356 23.344C200.1 24.752 199.62 25.872 198.916 26.704H207.94V15.232H200.98L200.884 17.728ZM235.188 7.552C239.508 7.552 242.804 8.544 245.076 10.528C247.348 12.48 248.484 15.488 248.484 19.552V34H239.988V30.64C238.676 33.168 236.116 34.432 232.308 34.432C230.292 34.432 228.548 34.08 227.076 33.376C225.604 32.672 224.484 31.728 223.716 30.544C222.98 29.328 222.612 27.952 222.612 26.416C222.612 23.952 223.556 22.048 225.444 20.704C227.332 19.328 230.244 18.64 234.18 18.64H239.364C239.204 15.888 237.364 14.512 233.844 14.512C232.596 14.512 231.332 14.72 230.052 15.136C228.772 15.52 227.684 16.064 226.788 16.768L223.716 10.576C225.156 9.616 226.9 8.88 228.948 8.368C231.028 7.824 233.108 7.552 235.188 7.552ZM234.852 28.672C235.908 28.672 236.836 28.416 237.636 27.904C238.436 27.392 239.012 26.64 239.364 25.648V23.392H235.428C232.772 23.392 231.444 24.272 231.444 26.032C231.444 26.832 231.748 27.472 232.356 27.952C232.964 28.432 233.796 28.672 234.852 28.672ZM280.322 21.04C280.322 21.104 280.274 21.856 280.178 23.296H261.266C261.65 24.64 262.386 25.68 263.474 26.416C264.594 27.12 265.986 27.472 267.65 27.472C268.898 27.472 269.97 27.296 270.866 26.944C271.794 26.592 272.722 26.016 273.65 25.216L278.45 30.208C275.922 33.024 272.226 34.432 267.362 34.432C264.322 34.432 261.65 33.856 259.346 32.704C257.042 31.552 255.25 29.952 253.97 27.904C252.722 25.856 252.098 23.536 252.098 20.944C252.098 18.384 252.706 16.096 253.922 14.08C255.17 12.032 256.882 10.432 259.058 9.28C261.234 8.128 263.682 7.552 266.402 7.552C268.994 7.552 271.346 8.096 273.458 9.184C275.57 10.24 277.234 11.792 278.45 13.84C279.698 15.856 280.322 18.256 280.322 21.04ZM266.45 14.032C265.042 14.032 263.858 14.432 262.898 15.232C261.97 16.032 261.378 17.12 261.122 18.496H271.778C271.522 17.12 270.914 16.032 269.954 15.232C269.026 14.432 267.858 14.032 266.45 14.032ZM310.39 34V20.32L303.718 31.696H299.83L293.35 20.128V34H285.142V7.984H294.742L301.99 21.568L309.958 7.984H318.55L318.598 34H310.39ZM365.216 7.984V34H356.096V15.232H349.52L349.328 19.216C349.2 22.608 348.864 25.408 348.32 27.616C347.776 29.824 346.88 31.552 345.632 32.8C344.384 34.016 342.672 34.624 340.496 34.624C339.376 34.624 337.904 34.416 336.08 34L336.464 26.56C337.04 26.624 337.424 26.656 337.616 26.656C338.608 26.656 339.36 26.336 339.872 25.696C340.384 25.056 340.736 24.208 340.928 23.152C341.12 22.064 341.248 20.624 341.312 18.832L341.696 7.984H365.216ZM397.697 21.04C397.697 21.104 397.649 21.856 397.553 23.296H378.641C379.025 24.64 379.761 25.68 380.849 26.416C381.969 27.12 383.361 27.472 385.025 27.472C386.273 27.472 387.345 27.296 388.241 26.944C389.169 26.592 390.097 26.016 391.025 25.216L395.825 30.208C393.297 33.024 389.601 34.432 384.737 34.432C381.697 34.432 379.025 33.856 376.721 32.704C374.417 31.552 372.625 29.952 371.345 27.904C370.097 25.856 369.473 23.536 369.473 20.944C369.473 18.384 370.081 16.096 371.297 14.08C372.545 12.032 374.257 10.432 376.433 9.28C378.609 8.128 381.057 7.552 383.777 7.552C386.369 7.552 388.721 8.096 390.833 9.184C392.945 10.24 394.609 11.792 395.825 13.84C397.073 15.856 397.697 18.256 397.697 21.04ZM383.825 14.032C382.417 14.032 381.233 14.432 380.273 15.232C379.345 16.032 378.753 17.12 378.497 18.496H389.153C388.897 17.12 388.289 16.032 387.329 15.232C386.401 14.432 385.233 14.032 383.825 14.032ZM424.309 15.232H411.589V34H402.517V7.984H424.309V15.232ZM440.069 24.736H436.997V34H427.877V7.984H436.997V17.584H440.261L446.645 7.984H456.293L447.557 20.464L456.869 34H446.117L440.069 24.736ZM459.892 7.984H468.964V21.616L479.86 7.984H488.26V34H479.14V20.32L468.34 34H459.892V7.984ZM520.744 21.04C520.744 21.104 520.696 21.856 520.6 23.296H501.688C502.072 24.64 502.808 25.68 503.896 26.416C505.016 27.12 506.408 27.472 508.072 27.472C509.32 27.472 510.392 27.296 511.288 26.944C512.216 26.592 513.144 26.016 514.072 25.216L518.872 30.208C516.344 33.024 512.648 34.432 507.784 34.432C504.744 34.432 502.072 33.856 499.768 32.704C497.464 31.552 495.672 29.952 494.392 27.904C493.144 25.856 492.52 23.536 492.52 20.944C492.52 18.384 493.128 16.096 494.344 14.08C495.592 12.032 497.304 10.432 499.48 9.28C501.656 8.128 504.104 7.552 506.824 7.552C509.416 7.552 511.768 8.096 513.88 9.184C515.992 10.24 517.656 11.792 518.872 13.84C520.12 15.856 520.744 18.256 520.744 21.04ZM506.872 14.032C505.464 14.032 504.28 14.432 503.32 15.232C502.392 16.032 501.8 17.12 501.544 18.496H512.2C511.944 17.12 511.336 16.032 510.376 15.232C509.448 14.432 508.28 14.032 506.872 14.032ZM555.901 7.552C558.269 7.552 560.413 8.112 562.333 9.232C564.285 10.32 565.821 11.888 566.941 13.936C568.093 15.952 568.669 18.304 568.669 20.992C568.669 23.68 568.093 26.048 566.941 28.096C565.821 30.112 564.285 31.68 562.333 32.8C560.413 33.888 558.269 34.432 555.901 34.432C552.861 34.432 550.445 33.52 548.653 31.696V43.312H539.533V7.984H548.221V10.576C549.917 8.56 552.477 7.552 555.901 7.552ZM553.981 27.184C555.581 27.184 556.893 26.64 557.917 25.552C558.941 24.432 559.453 22.912 559.453 20.992C559.453 19.072 558.941 17.568 557.917 16.48C556.893 15.36 555.581 14.8 553.981 14.8C552.381 14.8 551.069 15.36 550.045 16.48C549.021 17.568 548.509 19.072 548.509 20.992C548.509 22.912 549.021 24.432 550.045 25.552C551.069 26.64 552.381 27.184 553.981 27.184ZM599.401 21.04C599.401 21.104 599.353 21.856 599.257 23.296H580.345C580.729 24.64 581.465 25.68 582.553 26.416C583.673 27.12 585.065 27.472 586.729 27.472C587.977 27.472 589.049 27.296 589.945 26.944C590.873 26.592 591.801 26.016 592.729 25.216L597.529 30.208C595.001 33.024 591.305 34.432 586.441 34.432C583.401 34.432 580.729 33.856 578.425 32.704C576.121 31.552 574.329 29.952 573.049 27.904C571.801 25.856 571.177 23.536 571.177 20.944C571.177 18.384 571.785 16.096 573.001 14.08C574.249 12.032 575.961 10.432 578.137 9.28C580.313 8.128 582.761 7.552 585.481 7.552C588.073 7.552 590.425 8.096 592.537 9.184C594.649 10.24 596.313 11.792 597.529 13.84C598.777 15.856 599.401 18.256 599.401 21.04ZM585.529 14.032C584.121 14.032 582.937 14.432 581.977 15.232C581.049 16.032 580.457 17.12 580.201 18.496H590.857C590.601 17.12 589.993 16.032 589.033 15.232C588.105 14.432 586.937 14.032 585.529 14.032ZM645.452 7.984V34H604.22V7.984H613.292V26.704H620.348V7.984H629.42V26.704H636.428V7.984H645.452ZM677.963 21.04C677.963 21.104 677.915 21.856 677.819 23.296H658.907C659.291 24.64 660.027 25.68 661.115 26.416C662.235 27.12 663.627 27.472 665.291 27.472C666.539 27.472 667.611 27.296 668.507 26.944C669.435 26.592 670.363 26.016 671.291 25.216L676.091 30.208C673.563 33.024 669.867 34.432 665.003 34.432C661.963 34.432 659.291 33.856 656.987 32.704C654.683 31.552 652.891 29.952 651.611 27.904C650.363 25.856 649.739 23.536 649.739 20.944C649.739 18.384 650.347 16.096 651.563 14.08C652.811 12.032 654.523 10.432 656.699 9.28C658.875 8.128 661.323 7.552 664.043 7.552C666.635 7.552 668.987 8.096 671.099 9.184C673.211 10.24 674.875 11.792 676.091 13.84C677.339 15.856 677.963 18.256 677.963 21.04ZM664.091 14.032C662.683 14.032 661.499 14.432 660.539 15.232C659.611 16.032 659.019 17.12 658.763 18.496H669.419C669.163 17.12 668.555 16.032 667.595 15.232C666.667 14.432 665.499 14.032 664.091 14.032ZM682.783 7.984H691.855V17.632H701.215V7.984H710.335V34H701.215V24.88H691.855V34H682.783V7.984ZM716.486 7.984H725.558V21.616L736.454 7.984H744.854V34H735.734V20.32L724.934 34H716.486V7.984ZM775.466 7.984V34H767.354V26.944H763.226L758.618 34H748.97L754.73 25.696C753.002 24.928 751.674 23.888 750.746 22.576C749.85 21.232 749.402 19.632 749.402 17.776C749.402 14.672 750.554 12.272 752.858 10.576C755.162 8.848 758.33 7.984 762.362 7.984H775.466ZM762.554 15.184C759.994 15.184 758.714 16.16 758.714 18.112C758.714 19.136 759.018 19.888 759.626 20.368C760.266 20.848 761.226 21.088 762.506 21.088H767.354V15.184H762.554ZM57.2139 99.432C54.3339 99.432 51.7579 98.856 49.4859 97.704C47.2139 96.552 45.4379 94.952 44.1579 92.904C42.9099 90.856 42.2859 88.536 42.2859 85.944C42.2859 83.352 42.9099 81.048 44.1579 79.032C45.4379 76.984 47.2139 75.4 49.4859 74.28C51.7579 73.128 54.3339 72.552 57.2139 72.552C60.1579 72.552 62.7019 73.192 64.8459 74.472C66.9899 75.72 68.5099 77.464 69.4059 79.704L62.3499 83.304C61.1659 80.968 59.4379 79.8 57.1659 79.8C55.5339 79.8 54.1739 80.344 53.0859 81.432C52.0299 82.52 51.5019 84.024 51.5019 85.944C51.5019 87.896 52.0299 89.432 53.0859 90.552C54.1739 91.64 55.5339 92.184 57.1659 92.184C59.4379 92.184 61.1659 91.016 62.3499 88.68L69.4059 92.28C68.5099 94.52 66.9899 96.28 64.8459 97.56C62.7019 98.808 60.1579 99.432 57.2139 99.432ZM99.5289 72.984V99H90.4089V80.232H83.8329L83.6409 84.216C83.5129 87.608 83.1769 90.408 82.6329 92.616C82.0889 94.824 81.1929 96.552 79.9449 97.8C78.6969 99.016 76.9849 99.624 74.8089 99.624C73.6889 99.624 72.2169 99.416 70.3929 99L70.7769 91.56C71.3529 91.624 71.7369 91.656 71.9289 91.656C72.9209 91.656 73.6729 91.336 74.1849 90.696C74.6969 90.056 75.0489 89.208 75.2409 88.152C75.4329 87.064 75.5609 85.624 75.6249 83.832L76.0089 72.984H99.5289ZM118.474 99.432C115.69 99.432 113.178 98.856 110.938 97.704C108.698 96.552 106.938 94.952 105.658 92.904C104.41 90.856 103.786 88.536 103.786 85.944C103.786 83.384 104.41 81.08 105.658 79.032C106.938 76.984 108.682 75.4 110.89 74.28C113.13 73.128 115.658 72.552 118.474 72.552C121.29 72.552 123.818 73.128 126.058 74.28C128.298 75.4 130.042 76.984 131.29 79.032C132.538 81.048 133.162 83.352 133.162 85.944C133.162 88.536 132.538 90.856 131.29 92.904C130.042 94.952 128.298 96.552 126.058 97.704C123.818 98.856 121.29 99.432 118.474 99.432ZM118.474 92.184C120.074 92.184 121.386 91.64 122.41 90.552C123.434 89.432 123.946 87.896 123.946 85.944C123.946 84.024 123.434 82.52 122.41 81.432C121.386 80.344 120.074 79.8 118.474 79.8C116.874 79.8 115.562 80.344 114.538 81.432C113.514 82.52 113.002 84.024 113.002 85.944C113.002 87.896 113.514 89.432 114.538 90.552C115.562 91.64 116.874 92.184 118.474 92.184ZM163.617 89.736H160.929V99H151.953V89.736H149.217L144.513 99H133.713L141.537 85.56L134.289 72.984H143.937L149.025 82.584H151.953V72.984H160.929V82.584H163.761L168.897 72.984H178.545L171.249 85.56L179.121 99H168.321L163.617 89.736ZM182.299 72.984H191.371V82.632H200.731V72.984H209.851V99H200.731V89.88H191.371V99H182.299V72.984ZM230.882 81.048C234.306 81.08 236.882 81.848 238.61 83.352C240.338 84.856 241.202 87 241.202 89.784C241.202 92.696 240.194 94.968 238.178 96.6C236.194 98.232 233.378 99.032 229.73 99H216.002V72.984H225.074V81.048H230.882ZM243.41 72.984H252.482V99H243.41V72.984ZM228.818 92.76C231.122 92.76 232.274 91.72 232.274 89.64C232.274 88.616 231.986 87.864 231.41 87.384C230.834 86.904 229.97 86.648 228.818 86.616H225.074V92.712L228.818 92.76ZM275.122 99L270.466 92.184L265.474 99H255.586L265.474 85.992L255.874 72.984H266.146L270.754 79.56L275.554 72.984H285.202L275.602 85.656L285.538 99H275.122ZM320.916 85.512C322.42 85.992 323.572 86.728 324.372 87.72C325.204 88.68 325.62 89.832 325.62 91.176C325.62 92.904 325.012 94.408 323.796 95.688C322.612 96.936 320.98 97.896 318.9 98.568C316.852 99.208 314.548 99.528 311.988 99.528C307.572 99.528 303.636 98.776 300.18 97.272L302.532 91.128C305.284 92.28 308.34 92.856 311.7 92.856C313.14 92.856 314.276 92.648 315.108 92.232C315.972 91.816 316.404 91.224 316.404 90.456C316.404 89.752 316.148 89.24 315.636 88.92C315.124 88.6 314.34 88.44 313.284 88.44H307.668V83.112H312.468C314.612 83.112 315.684 82.456 315.684 81.144C315.684 79.768 314.26 79.08 311.412 79.08C308.948 79.08 306.196 79.656 303.156 80.808L300.996 74.808C304.772 73.24 308.5 72.456 312.18 72.456C315.86 72.456 318.9 73.112 321.3 74.424C323.7 75.704 324.9 77.512 324.9 79.848C324.9 81.032 324.548 82.12 323.844 83.112C323.14 84.104 322.164 84.904 320.916 85.512ZM340.703 72.552C345.023 72.552 348.319 73.544 350.591 75.528C352.863 77.48 353.999 80.488 353.999 84.552V99H345.503V95.64C344.191 98.168 341.631 99.432 337.823 99.432C335.807 99.432 334.063 99.08 332.591 98.376C331.119 97.672 329.999 96.728 329.231 95.544C328.495 94.328 328.127 92.952 328.127 91.416C328.127 88.952 329.071 87.048 330.959 85.704C332.847 84.328 335.759 83.64 339.695 83.64H344.879C344.719 80.888 342.879 79.512 339.359 79.512C338.111 79.512 336.847 79.72 335.567 80.136C334.287 80.52 333.199 81.064 332.303 81.768L329.231 75.576C330.671 74.616 332.415 73.88 334.463 73.368C336.543 72.824 338.623 72.552 340.703 72.552ZM340.367 93.672C341.423 93.672 342.351 93.416 343.151 92.904C343.951 92.392 344.527 91.64 344.879 90.648V88.392H340.943C338.287 88.392 336.959 89.272 336.959 91.032C336.959 91.832 337.263 92.472 337.871 92.952C338.479 93.432 339.311 93.672 340.367 93.672ZM390.254 91.704V104.376H381.806V99H365.438V104.376H356.942V91.704H357.902C359.47 91.672 360.558 90.824 361.166 89.16C361.774 87.464 362.142 85.096 362.27 82.056L362.606 72.984H386.654V91.704H390.254ZM370.478 82.728C370.382 85.064 370.206 86.936 369.95 88.344C369.694 89.752 369.214 90.872 368.51 91.704H377.534V80.232H370.574L370.478 82.728ZM404.782 72.552C409.102 72.552 412.398 73.544 414.67 75.528C416.942 77.48 418.078 80.488 418.078 84.552V99H409.582V95.64C408.27 98.168 405.71 99.432 401.902 99.432C399.886 99.432 398.142 99.08 396.67 98.376C395.198 97.672 394.078 96.728 393.31 95.544C392.574 94.328 392.206 92.952 392.206 91.416C392.206 88.952 393.15 87.048 395.038 85.704C396.926 84.328 399.838 83.64 403.774 83.64H408.958C408.798 80.888 406.958 79.512 403.438 79.512C402.19 79.512 400.926 79.72 399.646 80.136C398.366 80.52 397.278 81.064 396.382 81.768L393.31 75.576C394.75 74.616 396.494 73.88 398.542 73.368C400.622 72.824 402.702 72.552 404.782 72.552ZM404.446 93.672C405.502 93.672 406.43 93.416 407.23 92.904C408.03 92.392 408.606 91.64 408.958 90.648V88.392H405.022C402.366 88.392 401.038 89.272 401.038 91.032C401.038 91.832 401.342 92.472 401.95 92.952C402.558 93.432 403.39 93.672 404.446 93.672ZM448.476 72.984V99H439.404V89.736C437.484 90.728 435.276 91.224 432.78 91.224C429.132 91.224 426.396 90.408 424.572 88.776C422.748 87.144 421.836 84.568 421.836 81.048V72.984H430.956V80.424C430.956 81.864 431.276 82.904 431.916 83.544C432.588 84.152 433.58 84.456 434.892 84.456C436.556 84.456 438.06 84.104 439.404 83.4V72.984H448.476ZM468.611 72.984H477.683V86.616L488.579 72.984H496.979V99H487.859V85.32L477.059 99H468.611V72.984ZM543.96 72.984V99H534.888V80.232H526.152V99H517.08V72.984H543.96ZM566.542 72.552C568.91 72.552 571.054 73.112 572.974 74.232C574.926 75.32 576.462 76.888 577.582 78.936C578.734 80.952 579.31 83.304 579.31 85.992C579.31 88.68 578.734 91.048 577.582 93.096C576.462 95.112 574.926 96.68 572.974 97.8C571.054 98.888 568.91 99.432 566.542 99.432C563.502 99.432 561.086 98.52 559.294 96.696V108.312H550.174V72.984H558.862V75.576C560.558 73.56 563.118 72.552 566.542 72.552ZM564.622 92.184C566.222 92.184 567.534 91.64 568.558 90.552C569.582 89.432 570.094 87.912 570.094 85.992C570.094 84.072 569.582 82.568 568.558 81.48C567.534 80.36 566.222 79.8 564.622 79.8C563.022 79.8 561.71 80.36 560.686 81.48C559.662 82.568 559.15 84.072 559.15 85.992C559.15 87.912 559.662 89.432 560.686 90.552C561.71 91.64 563.022 92.184 564.622 92.184ZM596.505 99.432C593.721 99.432 591.209 98.856 588.969 97.704C586.729 96.552 584.969 94.952 583.689 92.904C582.441 90.856 581.817 88.536 581.817 85.944C581.817 83.384 582.441 81.08 583.689 79.032C584.969 76.984 586.713 75.4 588.921 74.28C591.161 73.128 593.689 72.552 596.505 72.552C599.321 72.552 601.849 73.128 604.089 74.28C606.329 75.4 608.073 76.984 609.321 79.032C610.569 81.048 611.193 83.352 611.193 85.944C611.193 88.536 610.569 90.856 609.321 92.904C608.073 94.952 606.329 96.552 604.089 97.704C601.849 98.856 599.321 99.432 596.505 99.432ZM596.505 92.184C598.105 92.184 599.417 91.64 600.441 90.552C601.465 89.432 601.977 87.896 601.977 85.944C601.977 84.024 601.465 82.52 600.441 81.432C599.417 80.344 598.105 79.8 596.505 79.8C594.905 79.8 593.593 80.344 592.569 81.432C591.545 82.52 591.033 84.024 591.033 85.944C591.033 87.896 591.545 89.432 592.569 90.552C593.593 91.64 594.905 92.184 596.505 92.184ZM631.55 75.288C634.078 75.288 636.27 75.784 638.126 76.776C639.982 77.736 641.39 79.128 642.35 80.952C643.342 82.744 643.838 84.84 643.838 87.24C643.838 89.704 643.198 91.88 641.918 93.768C640.67 95.624 638.926 97.08 636.686 98.136C634.478 99.16 631.982 99.672 629.198 99.672C624.622 99.672 620.974 98.248 618.254 95.4C615.534 92.552 614.174 88.28 614.174 82.584C614.174 71.896 618.91 65.656 628.382 63.864L641.006 61.464L642.254 69.096L631.31 71.16C628.526 71.672 626.478 72.504 625.166 73.656C623.886 74.776 623.118 76.408 622.862 78.552C625.198 76.376 628.094 75.288 631.55 75.288ZM629.246 92.76C630.878 92.76 632.158 92.232 633.086 91.176C634.046 90.12 634.526 88.808 634.526 87.24C634.526 85.576 634.046 84.28 633.086 83.352C632.126 82.392 630.846 81.912 629.246 81.912C627.614 81.912 626.302 82.392 625.31 83.352C624.35 84.312 623.87 85.624 623.87 87.288C623.87 88.888 624.366 90.2 625.358 91.224C626.35 92.248 627.646 92.76 629.246 92.76ZM674.076 72.984V99H664.956V80.232H658.38L658.188 84.216C658.06 87.608 657.724 90.408 657.18 92.616C656.636 94.824 655.74 96.552 654.492 97.8C653.244 99.016 651.532 99.624 649.356 99.624C648.236 99.624 646.764 99.416 644.94 99L645.324 91.56C645.9 91.624 646.284 91.656 646.476 91.656C647.468 91.656 648.22 91.336 648.732 90.696C649.244 90.056 649.596 89.208 649.788 88.152C649.98 87.064 650.108 85.624 650.172 83.832L650.556 72.984H674.076ZM706.557 86.04C706.557 86.104 706.509 86.856 706.413 88.296H687.501C687.885 89.64 688.621 90.68 689.709 91.416C690.829 92.12 692.221 92.472 693.885 92.472C695.133 92.472 696.205 92.296 697.101 91.944C698.029 91.592 698.957 91.016 699.885 90.216L704.685 95.208C702.157 98.024 698.461 99.432 693.597 99.432C690.557 99.432 687.885 98.856 685.581 97.704C683.277 96.552 681.485 94.952 680.205 92.904C678.957 90.856 678.333 88.536 678.333 85.944C678.333 83.384 678.941 81.096 680.157 79.08C681.405 77.032 683.117 75.432 685.293 74.28C687.469 73.128 689.917 72.552 692.637 72.552C695.229 72.552 697.581 73.096 699.693 74.184C701.805 75.24 703.469 76.792 704.685 78.84C705.933 80.856 706.557 83.256 706.557 86.04ZM692.685 79.032C691.277 79.032 690.093 79.432 689.133 80.232C688.205 81.032 687.613 82.12 687.357 83.496H698.013C697.757 82.12 697.149 81.032 696.189 80.232C695.261 79.432 694.093 79.032 692.685 79.032ZM736.625 99V85.32L729.953 96.696H726.065L719.585 85.128V99H711.377V72.984H720.977L728.225 86.568L736.193 72.984H744.785L744.833 99H736.625Z" fill="white"/>
</svg>
