<svg width="172" height="16" viewBox="0 0 172 16" fill="none" xmlns="http://www.w3.org/2000/svg">
<path d="M9.81388 0.799999V12H8.24588V2.192H1.74988V12H0.165875V0.799999H9.81388ZM20.7145 7.808C20.7145 7.92533 20.7038 8.08 20.6825 8.272H13.8025C13.8985 9.01867 14.2238 9.62133 14.7785 10.08C15.3438 10.528 16.0425 10.752 16.8745 10.752C17.8878 10.752 18.7038 10.4107 19.3225 9.728L20.1705 10.72C19.7865 11.168 19.3065 11.5093 18.7305 11.744C18.1652 11.9787 17.5305 12.096 16.8265 12.096C15.9305 12.096 15.1358 11.9147 14.4425 11.552C13.7492 11.1787 13.2105 10.6613 12.8265 10C12.4532 9.33867 12.2665 8.592 12.2665 7.76C12.2665 6.93867 12.4478 6.19733 12.8105 5.536C13.1838 4.87467 13.6905 4.36267 14.3305 4C14.9812 3.62667 15.7118 3.44 16.5225 3.44C17.3332 3.44 18.0532 3.62667 18.6825 4C19.3225 4.36267 19.8185 4.87467 20.1705 5.536C20.5332 6.19733 20.7145 6.95467 20.7145 7.808ZM16.5225 4.736C15.7865 4.736 15.1678 4.96 14.6665 5.408C14.1758 5.856 13.8878 6.44267 13.8025 7.168H19.2425C19.1572 6.45333 18.8638 5.872 18.3625 5.424C17.8718 4.96533 17.2585 4.736 16.5225 4.736ZM27.5934 3.44C28.4147 3.44 29.1507 3.62133 29.8014 3.984C30.452 4.34667 30.9587 4.85333 31.3214 5.504C31.6947 6.15467 31.8814 6.90667 31.8814 7.76C31.8814 8.61333 31.6947 9.37067 31.3214 10.032C30.9587 10.6827 30.452 11.1893 29.8014 11.552C29.1507 11.9147 28.4147 12.096 27.5934 12.096C26.9854 12.096 26.4254 11.9787 25.9134 11.744C25.412 11.5093 24.9854 11.168 24.6334 10.72V15.104H23.0974V3.52H24.5694V4.864C24.9107 4.39467 25.3427 4.04267 25.8654 3.808C26.388 3.56267 26.964 3.44 27.5934 3.44ZM27.4654 10.752C28.0094 10.752 28.4947 10.6293 28.9214 10.384C29.3587 10.128 29.7 9.776 29.9454 9.328C30.2014 8.86933 30.3294 8.34667 30.3294 7.76C30.3294 7.17333 30.2014 6.656 29.9454 6.208C29.7 5.74933 29.3587 5.39733 28.9214 5.152C28.4947 4.90667 28.0094 4.784 27.4654 4.784C26.932 4.784 26.4467 4.912 26.0094 5.168C25.5827 5.41333 25.2414 5.76 24.9854 6.208C24.74 6.656 24.6174 7.17333 24.6174 7.76C24.6174 8.34667 24.74 8.86933 24.9854 9.328C25.2307 9.776 25.572 10.128 26.0094 10.384C26.4467 10.6293 26.932 10.752 27.4654 10.752ZM41.777 7.808C41.777 7.92533 41.7663 8.08 41.745 8.272H34.865C34.961 9.01867 35.2863 9.62133 35.841 10.08C36.4063 10.528 37.105 10.752 37.937 10.752C38.9503 10.752 39.7663 10.4107 40.385 9.728L41.233 10.72C40.849 11.168 40.369 11.5093 39.793 11.744C39.2277 11.9787 38.593 12.096 37.889 12.096C36.993 12.096 36.1983 11.9147 35.505 11.552C34.8117 11.1787 34.273 10.6613 33.889 10C33.5157 9.33867 33.329 8.592 33.329 7.76C33.329 6.93867 33.5103 6.19733 33.873 5.536C34.2463 4.87467 34.753 4.36267 35.393 4C36.0437 3.62667 36.7743 3.44 37.585 3.44C38.3957 3.44 39.1157 3.62667 39.745 4C40.385 4.36267 40.881 4.87467 41.233 5.536C41.5957 6.19733 41.777 6.95467 41.777 7.808ZM37.585 4.736C36.849 4.736 36.2303 4.96 35.729 5.408C35.2383 5.856 34.9503 6.44267 34.865 7.168H40.305C40.2197 6.45333 39.9263 5.872 39.425 5.424C38.9343 4.96533 38.321 4.736 37.585 4.736ZM52.6433 10.656V13.968H51.2033V12H44.1153V13.968H42.6593V10.656H43.1073C43.6513 10.624 44.0246 10.24 44.2273 9.504C44.4299 8.768 44.5686 7.728 44.6432 6.384L44.7713 3.52H51.3472V10.656H52.6433ZM46.0513 6.496C46.0086 7.56267 45.9179 8.448 45.7793 9.152C45.6513 9.84533 45.4113 10.3467 45.0593 10.656H49.8113V4.864H46.1313L46.0513 6.496ZM58.2763 12.096C57.4336 12.096 56.6763 11.9093 56.0043 11.536C55.3323 11.1627 54.8043 10.6507 54.4203 10C54.0469 9.33867 53.8603 8.592 53.8603 7.76C53.8603 6.928 54.0469 6.18667 54.4203 5.536C54.8043 4.87467 55.3323 4.36267 56.0043 4C56.6763 3.62667 57.4336 3.44 58.2763 3.44C59.1189 3.44 59.8709 3.62667 60.5323 4C61.2043 4.36267 61.7269 4.87467 62.1003 5.536C62.4843 6.18667 62.6763 6.928 62.6763 7.76C62.6763 8.592 62.4843 9.33867 62.1003 10C61.7269 10.6507 61.2043 11.1627 60.5323 11.536C59.8709 11.9093 59.1189 12.096 58.2763 12.096ZM58.2763 10.752C58.8203 10.752 59.3056 10.6293 59.7323 10.384C60.1696 10.128 60.5109 9.776 60.7563 9.328C61.0016 8.86933 61.1243 8.34667 61.1243 7.76C61.1243 7.17333 61.0016 6.656 60.7563 6.208C60.5109 5.74933 60.1696 5.39733 59.7323 5.152C59.3056 4.90667 58.8203 4.784 58.2763 4.784C57.7323 4.784 57.2416 4.90667 56.8043 5.152C56.3776 5.39733 56.0363 5.74933 55.7803 6.208C55.5349 6.656 55.4123 7.17333 55.4123 7.76C55.4123 8.34667 55.5349 8.86933 55.7803 9.328C56.0363 9.776 56.3776 10.128 56.8043 10.384C57.2416 10.6293 57.7323 10.752 58.2763 10.752ZM70.6703 7.6C71.7689 7.87733 72.3183 8.56533 72.3183 9.664C72.3183 10.4107 72.0356 10.9867 71.4703 11.392C70.9156 11.7973 70.0836 12 68.9743 12H64.8943V3.52H68.8303C69.8329 3.52 70.6169 3.712 71.1823 4.096C71.7476 4.46933 72.0303 5.00267 72.0303 5.696C72.0303 6.144 71.9076 6.53333 71.6623 6.864C71.4276 7.184 71.0969 7.42933 70.6703 7.6ZM66.3983 7.168H68.7023C69.2889 7.168 69.7316 7.06133 70.0303 6.848C70.3396 6.63467 70.4943 6.32533 70.4943 5.92C70.4943 5.10933 69.8969 4.704 68.7023 4.704H66.3983V7.168ZM68.8623 10.816C69.5023 10.816 69.9823 10.7147 70.3023 10.512C70.6223 10.3093 70.7823 9.99467 70.7823 9.568C70.7823 9.13067 70.6329 8.80533 70.3343 8.592C70.0463 8.37867 69.5876 8.272 68.9583 8.272H66.3983V10.816H68.8623ZM77.7464 3.44C78.9197 3.44 79.8157 3.728 80.4344 4.304C81.0637 4.88 81.3784 5.73867 81.3784 6.88V12H79.9224V10.88C79.6664 11.2747 79.2984 11.5787 78.8184 11.792C78.349 11.9947 77.789 12.096 77.1384 12.096C76.189 12.096 75.4264 11.8667 74.8504 11.408C74.285 10.9493 74.0024 10.3467 74.0024 9.6C74.0024 8.85333 74.2744 8.256 74.8184 7.808C75.3624 7.34933 76.2264 7.12 77.4104 7.12H79.8424V6.816C79.8424 6.15467 79.6504 5.648 79.2664 5.296C78.8824 4.944 78.317 4.768 77.5704 4.768C77.069 4.768 76.5784 4.85333 76.0984 5.024C75.6184 5.184 75.213 5.40267 74.8824 5.68L74.2424 4.528C74.6797 4.176 75.2024 3.90933 75.8104 3.728C76.4184 3.536 77.0637 3.44 77.7464 3.44ZM77.3944 10.912C77.981 10.912 78.4877 10.784 78.9144 10.528C79.341 10.2613 79.6504 9.888 79.8424 9.408V8.224H77.4744C76.173 8.224 75.5224 8.66133 75.5224 9.536C75.5224 9.96267 75.6877 10.2987 76.0184 10.544C76.349 10.7893 76.8077 10.912 77.3944 10.912ZM90.9443 3.52V12H89.5683V9.312H87.1043H86.9283L85.0723 12H83.4243L85.4883 9.104C84.8483 8.912 84.3576 8.59733 84.0163 8.16C83.6749 7.712 83.5043 7.15733 83.5043 6.496C83.5043 5.52533 83.8349 4.78933 84.4963 4.288C85.1576 3.776 86.0696 3.52 87.2323 3.52H90.9443ZM85.0723 6.544C85.0723 7.10933 85.2483 7.53067 85.6003 7.808C85.9629 8.07467 86.5016 8.208 87.2163 8.208H89.5683V4.864H87.2803C85.8083 4.864 85.0723 5.424 85.0723 6.544ZM98.43 0.799999H100.03V12H98.43V0.799999ZM105.607 2.192H101.767V0.799999H111.031V2.192H107.191V12H105.607V2.192ZM120.575 12.096C119.711 12.096 118.937 11.9093 118.255 11.536C117.583 11.1627 117.055 10.6507 116.671 10C116.287 9.33867 116.095 8.592 116.095 7.76C116.095 6.928 116.287 6.18667 116.671 5.536C117.055 4.87467 117.583 4.36267 118.255 4C118.937 3.62667 119.711 3.44 120.575 3.44C121.343 3.44 122.025 3.59467 122.623 3.904C123.231 4.21333 123.7 4.66133 124.031 5.248L122.863 6C122.596 5.59467 122.265 5.29067 121.871 5.088C121.476 4.88533 121.039 4.784 120.559 4.784C120.004 4.784 119.503 4.90667 119.055 5.152C118.617 5.39733 118.271 5.74933 118.015 6.208C117.769 6.656 117.647 7.17333 117.647 7.76C117.647 8.35733 117.769 8.88533 118.015 9.344C118.271 9.792 118.617 10.1387 119.055 10.384C119.503 10.6293 120.004 10.752 120.559 10.752C121.039 10.752 121.476 10.6507 121.871 10.448C122.265 10.2453 122.596 9.94133 122.863 9.536L124.031 10.272C123.7 10.8587 123.231 11.312 122.623 11.632C122.025 11.9413 121.343 12.096 120.575 12.096ZM132.23 4.864H129.126V12H127.59V4.864H124.486V3.52H132.23V4.864ZM141.415 3.52L137.303 12.848C136.941 13.712 136.514 14.32 136.023 14.672C135.543 15.024 134.962 15.2 134.279 15.2C133.863 15.2 133.458 15.1307 133.063 14.992C132.679 14.864 132.359 14.672 132.103 14.416L132.759 13.264C133.197 13.68 133.703 13.888 134.279 13.888C134.653 13.888 134.962 13.7867 135.207 13.584C135.463 13.392 135.693 13.056 135.895 12.576L136.167 11.984L132.423 3.52H134.023L136.983 10.304L139.911 3.52H141.415ZM151.159 10.656V13.968H149.719V12H142.631V13.968H141.175V10.656H141.623C142.167 10.624 142.54 10.24 142.743 9.504C142.946 8.768 143.084 7.728 143.159 6.384L143.287 3.52H149.863V10.656H151.159ZM144.567 6.496C144.524 7.56267 144.434 8.448 144.295 9.152C144.167 9.84533 143.927 10.3467 143.575 10.656H148.327V4.864H144.647L144.567 6.496ZM153.16 3.52H154.696V9.696L159.896 3.52H161.288V12H159.752V5.824L154.568 12H153.16V3.52ZM171.069 3.52V12H169.693V9.312H167.229H167.053L165.197 12H163.549L165.613 9.104C164.973 8.912 164.483 8.59733 164.141 8.16C163.8 7.712 163.629 7.15733 163.629 6.496C163.629 5.52533 163.96 4.78933 164.621 4.288C165.283 3.776 166.195 3.52 167.357 3.52H171.069ZM165.197 6.544C165.197 7.10933 165.373 7.53067 165.725 7.808C166.088 8.07467 166.627 8.208 167.341 8.208H169.693V4.864H167.405C165.933 4.864 165.197 5.424 165.197 6.544Z" fill="white"/>
</svg>
